<?xml version="1.0" standalone="no"?>
<!DOCTYPE svg PUBLIC "-//W3C//DTD SVG 20010904//EN"
 "http://www.w3.org/TR/2001/REC-SVG-20010904/DTD/svg10.dtd">
<svg version="1.0" xmlns="http://www.w3.org/2000/svg"
 width="401.000000pt" height="358.000000pt" viewBox="0 0 401.000000 358.000000"
 preserveAspectRatio="xMidYMid meet">
<metadata>
Created by potrace 1.16, written by Peter Selinger 2001-2019
</metadata>
<g transform="translate(0.000000,358.000000) scale(0.100000,-0.100000)"
fill="#000000" stroke="none">
<path d="M1063 3525 c-17 -7 -40 -26 -50 -41 -17 -27 -18 -76 -21 -908 -2
-842 -2 -879 15 -865 167 140 249 211 413 355 268 236 520 461 550 491 24 24
23 23 -25 -4 -68 -40 -117 -71 -277 -174 l-136 -89 -112 0 c-61 0 -109 4 -106
9 3 5 103 77 221 161 118 84 215 156 215 159 0 9 -20 71 -94 300 -37 112 -65
206 -62 208 4 4 127 -84 330 -234 54 -41 104 -72 110 -70 7 3 106 73 220 156
115 83 210 150 212 148 2 -2 -34 -119 -80 -260 l-84 -257 82 -57 c120 -84 286
-202 326 -232 l35 -26 -275 -5 -274 -5 -81 -247 c-44 -136 -82 -249 -85 -252
-3 -3 -30 71 -60 165 -29 93 -57 172 -61 174 -8 6 -510 -767 -743 -1145 -19
-30 67 50 256 237 l283 283 591 0 c662 0 677 1 715 63 19 31 19 53 17 952 -3
864 -4 922 -21 953 -10 18 -32 42 -50 52 -31 19 -57 20 -947 20 -756 -1 -921
-3 -947 -15z m589 -222 c-110 -115 -297 -307 -415 -428 l-216 -220 0 191 -1
191 238 237 237 236 179 0 178 0 -200 -207z"/>
<path d="M2640 551 c-222 -68 -254 -360 -51 -464 104 -52 225 -33 303 49 127
132 68 357 -106 409 -53 16 -106 18 -146 6z m152 -112 c78 -56 85 -180 12
-250 -27 -26 -43 -33 -86 -37 -44 -3 -59 0 -87 20 -104 71 -91 232 24 284 38
18 98 10 137 -17z"/>
<path d="M60 505 l0 -44 68 -3 67 -3 3 -197 2 -198 50 0 50 0 0 200 0 200 70
0 70 0 0 45 0 45 -190 0 -190 0 0 -45z"/>
<path d="M520 305 l0 -245 55 0 55 0 0 245 0 245 -55 0 -55 0 0 -245z"/>
<path d="M760 305 l0 -245 175 0 175 0 0 45 0 45 -125 0 -125 0 0 55 0 55 110
0 110 0 0 45 0 45 -110 0 -110 0 0 50 0 50 120 0 120 0 0 50 0 50 -170 0 -170
0 0 -245z"/>
<path d="M1210 306 l0 -246 55 0 55 0 0 80 0 80 38 0 c37 0 41 -3 93 -80 l54
-80 63 0 c48 0 61 3 56 13 -4 6 -32 46 -61 88 l-53 76 25 11 c63 29 88 159 45
230 -32 52 -75 65 -232 70 l-138 4 0 -246z m248 143 c33 -11 47 -44 37 -89 -8
-35 -41 -50 -115 -50 l-60 0 0 75 0 75 54 0 c29 0 67 -5 84 -11z"/>
<path d="M1910 305 l0 -245 50 0 50 0 0 150 c0 83 3 150 8 150 4 -1 58 -68
120 -150 l113 -150 50 0 49 0 0 245 0 245 -50 0 -50 0 0 -156 c0 -125 -3 -154
-13 -146 -7 6 -62 76 -122 156 l-110 146 -47 0 -48 0 0 -245z"/>
<path d="M2991 542 c2 -5 47 -115 99 -246 l95 -237 45 3 45 3 82 205 c46 113
90 222 98 243 l15 37 -58 0 -57 0 -54 -140 c-29 -77 -59 -146 -65 -155 -9 -13
-22 13 -72 137 l-60 153 -58 3 c-32 2 -56 -1 -55 -6z"/>
<path d="M3641 523 c-19 -40 -181 -413 -192 -440 -8 -22 -6 -23 46 -23 l55 0
25 55 24 55 101 0 100 0 27 -55 27 -55 53 0 c29 0 53 1 53 3 0 1 -47 110 -104
242 l-103 240 -50 3 c-46 3 -50 1 -62 -25z"/>
</g>
</svg>
